<mxfile host="65bd71144e" pages="1">
    <diagram id="FFMdWyG1zXs3Rnwq7r34" name="Page-1">
        <mxGraphModel dx="1901" dy="779" grid="1" gridSize="10" guides="1" tooltips="1" connect="1" arrows="1" fold="1" page="1" pageScale="1" pageWidth="827" pageHeight="1169" math="0" shadow="0">
            <root>
                <mxCell id="0"/>
                <mxCell id="1" parent="0"/>
                <mxCell id="2" value="网络访问层（以太网等）" style="rounded=0;whiteSpace=wrap;html=1;fillColor=#f5f5f5;strokeColor=#666666;fontColor=#333333;" parent="1" vertex="1">
                    <mxGeometry x="80" y="480" width="680" height="40" as="geometry"/>
                </mxCell>
                <mxCell id="3" value="传输层：TCP、UDP" style="rounded=0;whiteSpace=wrap;html=1;fillColor=#f5f5f5;strokeColor=#666666;fontColor=#333333;" parent="1" vertex="1">
                    <mxGeometry x="80" y="40" width="680" height="40" as="geometry"/>
                </mxCell>
                <mxCell id="4" value="ip_rcv" style="shape=process;whiteSpace=wrap;html=1;backgroundOutline=1;fillColor=#f5f5f5;strokeColor=#666666;fontColor=#333333;fontStyle=0" parent="1" vertex="1">
                    <mxGeometry x="120" y="400" width="120" height="40" as="geometry"/>
                </mxCell>
                <mxCell id="5" value="路由" style="ellipse;whiteSpace=wrap;html=1;" parent="1" vertex="1">
                    <mxGeometry x="140" y="260" width="80" height="40" as="geometry"/>
                </mxCell>
                <mxCell id="6" value="ip_local_deliver" style="shape=process;whiteSpace=wrap;html=1;backgroundOutline=1;fillColor=#f5f5f5;strokeColor=#666666;fontColor=#333333;fontStyle=0" parent="1" vertex="1">
                    <mxGeometry x="120" y="120" width="120" height="40" as="geometry"/>
                </mxCell>
                <mxCell id="7" value="ip_forward" style="shape=process;whiteSpace=wrap;html=1;backgroundOutline=1;fillColor=#f5f5f5;strokeColor=#666666;fontColor=#333333;fontStyle=0" parent="1" vertex="1">
                    <mxGeometry x="353" y="260" width="120" height="40" as="geometry"/>
                </mxCell>
                <mxCell id="8" value="ip_queue_xmit" style="shape=process;whiteSpace=wrap;html=1;backgroundOutline=1;fillColor=#f5f5f5;strokeColor=#666666;fontColor=#333333;fontStyle=0" parent="1" vertex="1">
                    <mxGeometry x="600" y="120" width="120" height="40" as="geometry"/>
                </mxCell>
                <mxCell id="9" value="ip_local_out" style="shape=process;whiteSpace=wrap;html=1;backgroundOutline=1;fillColor=#f5f5f5;strokeColor=#666666;fontColor=#333333;fontStyle=0" parent="1" vertex="1">
                    <mxGeometry x="600" y="200" width="120" height="40" as="geometry"/>
                </mxCell>
                <mxCell id="10" value="ip_output" style="shape=process;whiteSpace=wrap;html=1;backgroundOutline=1;fillColor=#f5f5f5;strokeColor=#666666;fontColor=#333333;fontStyle=0" parent="1" vertex="1">
                    <mxGeometry x="600" y="400" width="120" height="40" as="geometry"/>
                </mxCell>
                <mxCell id="11" value="" style="endArrow=classic;html=1;" parent="1" edge="1">
                    <mxGeometry width="50" height="50" relative="1" as="geometry">
                        <mxPoint x="180" y="478" as="sourcePoint"/>
                        <mxPoint x="180" y="440" as="targetPoint"/>
                    </mxGeometry>
                </mxCell>
                <mxCell id="12" value="" style="endArrow=classic;html=1;entryX=0.5;entryY=1;entryDx=0;entryDy=0;exitX=0.5;exitY=0;exitDx=0;exitDy=0;" parent="1" source="4" target="5" edge="1">
                    <mxGeometry width="50" height="50" relative="1" as="geometry">
                        <mxPoint x="190" y="488" as="sourcePoint"/>
                        <mxPoint x="190" y="450" as="targetPoint"/>
                    </mxGeometry>
                </mxCell>
                <mxCell id="15" value="" style="endArrow=classic;html=1;entryX=0.5;entryY=1;entryDx=0;entryDy=0;exitX=0.5;exitY=0;exitDx=0;exitDy=0;" parent="1" source="5" target="6" edge="1">
                    <mxGeometry width="50" height="50" relative="1" as="geometry">
                        <mxPoint x="190" y="410" as="sourcePoint"/>
                        <mxPoint x="190" y="310" as="targetPoint"/>
                    </mxGeometry>
                </mxCell>
                <mxCell id="17" value="" style="endArrow=classic;html=1;" parent="1" edge="1">
                    <mxGeometry width="50" height="50" relative="1" as="geometry">
                        <mxPoint x="179" y="119" as="sourcePoint"/>
                        <mxPoint x="179" y="81" as="targetPoint"/>
                    </mxGeometry>
                </mxCell>
                <mxCell id="18" value="" style="endArrow=classic;html=1;entryX=0;entryY=0.5;entryDx=0;entryDy=0;exitX=1;exitY=0.5;exitDx=0;exitDy=0;" parent="1" source="5" target="7" edge="1">
                    <mxGeometry width="50" height="50" relative="1" as="geometry">
                        <mxPoint x="80" y="590" as="sourcePoint"/>
                        <mxPoint x="130" y="540" as="targetPoint"/>
                    </mxGeometry>
                </mxCell>
                <mxCell id="19" value="" style="endArrow=classic;html=1;entryX=0.25;entryY=0;entryDx=0;entryDy=0;exitX=1;exitY=0.5;exitDx=0;exitDy=0;rounded=1;" parent="1" source="7" target="10" edge="1">
                    <mxGeometry width="50" height="50" relative="1" as="geometry">
                        <mxPoint x="230" y="290" as="sourcePoint"/>
                        <mxPoint x="363" y="290" as="targetPoint"/>
                        <Array as="points">
                            <mxPoint x="630" y="280"/>
                        </Array>
                    </mxGeometry>
                </mxCell>
                <mxCell id="20" value="" style="endArrow=none;html=1;startArrow=classic;startFill=1;endFill=0;" parent="1" edge="1">
                    <mxGeometry width="50" height="50" relative="1" as="geometry">
                        <mxPoint x="659" y="120" as="sourcePoint"/>
                        <mxPoint x="659" y="82" as="targetPoint"/>
                    </mxGeometry>
                </mxCell>
                <mxCell id="21" value="" style="endArrow=classic;html=1;entryX=0.5;entryY=0;entryDx=0;entryDy=0;exitX=0.5;exitY=1;exitDx=0;exitDy=0;" parent="1" source="8" target="9" edge="1">
                    <mxGeometry width="50" height="50" relative="1" as="geometry">
                        <mxPoint x="660" y="170" as="sourcePoint"/>
                        <mxPoint x="800" y="140" as="targetPoint"/>
                    </mxGeometry>
                </mxCell>
                <mxCell id="22" value="" style="endArrow=classic;html=1;entryX=0.5;entryY=0;entryDx=0;entryDy=0;exitX=0.5;exitY=1;exitDx=0;exitDy=0;" parent="1" source="9" target="10" edge="1">
                    <mxGeometry width="50" height="50" relative="1" as="geometry">
                        <mxPoint x="670" y="270" as="sourcePoint"/>
                        <mxPoint x="670" y="210" as="targetPoint"/>
                    </mxGeometry>
                </mxCell>
                <mxCell id="24" value="路由" style="ellipse;whiteSpace=wrap;html=1;" parent="1" vertex="1">
                    <mxGeometry x="720" y="260" width="80" height="40" as="geometry"/>
                </mxCell>
                <mxCell id="25" value="" style="endArrow=none;html=1;startArrow=classic;startFill=1;endFill=0;" parent="1" edge="1">
                    <mxGeometry width="50" height="50" relative="1" as="geometry">
                        <mxPoint x="660" y="480" as="sourcePoint"/>
                        <mxPoint x="660" y="442" as="targetPoint"/>
                    </mxGeometry>
                </mxCell>
                <mxCell id="26" value="" style="endArrow=classic;html=1;exitX=0;exitY=0.5;exitDx=0;exitDy=0;startArrow=classic;startFill=1;" parent="1" source="24" edge="1">
                    <mxGeometry width="50" height="50" relative="1" as="geometry">
                        <mxPoint x="830" y="320" as="sourcePoint"/>
                        <mxPoint x="660" y="280" as="targetPoint"/>
                    </mxGeometry>
                </mxCell>
                <mxCell id="27" value="Netfilter:&lt;br&gt;NF_IP_FORWARD" style="rounded=1;whiteSpace=wrap;html=1;align=left;" parent="1" vertex="1">
                    <mxGeometry x="353" y="360" width="120" height="60" as="geometry"/>
                </mxCell>
                <mxCell id="28" value="Netfilter:&lt;br&gt;NF_IP_PRE_ROUTING" style="rounded=1;whiteSpace=wrap;html=1;align=left;" parent="1" vertex="1">
                    <mxGeometry x="-60" y="390" width="140" height="60" as="geometry"/>
                </mxCell>
                <mxCell id="29" value="Netfilter:&lt;br&gt;NF_IP_LOCAL_IN" style="rounded=1;whiteSpace=wrap;html=1;align=left;" parent="1" vertex="1">
                    <mxGeometry x="-60" y="110" width="140" height="60" as="geometry"/>
                </mxCell>
                <mxCell id="32" value="" style="endArrow=classic;startArrow=classic;html=1;exitX=1;exitY=0.5;exitDx=0;exitDy=0;entryX=0;entryY=0.5;entryDx=0;entryDy=0;" parent="1" source="29" target="6" edge="1">
                    <mxGeometry width="50" height="50" relative="1" as="geometry">
                        <mxPoint x="60" y="240" as="sourcePoint"/>
                        <mxPoint x="110" y="190" as="targetPoint"/>
                    </mxGeometry>
                </mxCell>
                <mxCell id="33" value="" style="endArrow=classic;startArrow=classic;html=1;exitX=1;exitY=0.5;exitDx=0;exitDy=0;entryX=0;entryY=0.5;entryDx=0;entryDy=0;" parent="1" source="28" target="4" edge="1">
                    <mxGeometry width="50" height="50" relative="1" as="geometry">
                        <mxPoint x="70" y="150" as="sourcePoint"/>
                        <mxPoint x="130" y="150" as="targetPoint"/>
                    </mxGeometry>
                </mxCell>
                <mxCell id="34" value="" style="endArrow=classic;startArrow=classic;html=1;exitX=0.5;exitY=1;exitDx=0;exitDy=0;entryX=0.5;entryY=0;entryDx=0;entryDy=0;" parent="1" source="7" target="27" edge="1">
                    <mxGeometry width="50" height="50" relative="1" as="geometry">
                        <mxPoint x="360" y="350" as="sourcePoint"/>
                        <mxPoint x="420" y="350" as="targetPoint"/>
                    </mxGeometry>
                </mxCell>
                <mxCell id="36" value="" style="edgeStyle=orthogonalEdgeStyle;rounded=1;orthogonalLoop=1;jettySize=auto;html=1;startArrow=classic;startFill=1;endArrow=classic;endFill=1;" parent="1" source="35" target="9" edge="1">
                    <mxGeometry relative="1" as="geometry"/>
                </mxCell>
                <mxCell id="35" value="Netfilter:&lt;br&gt;NF_IP_LOCAL_OUT" style="rounded=1;whiteSpace=wrap;html=1;align=left;" parent="1" vertex="1">
                    <mxGeometry x="760" y="190" width="150" height="60" as="geometry"/>
                </mxCell>
                <mxCell id="38" value="" style="edgeStyle=orthogonalEdgeStyle;rounded=1;orthogonalLoop=1;jettySize=auto;html=1;startArrow=classic;startFill=1;endArrow=classic;endFill=1;" parent="1" source="37" target="10" edge="1">
                    <mxGeometry relative="1" as="geometry"/>
                </mxCell>
                <mxCell id="37" value="Netfilter:&lt;br&gt;NF_IP_POST_ROUTING" style="rounded=1;whiteSpace=wrap;html=1;align=left;" parent="1" vertex="1">
                    <mxGeometry x="760" y="390" width="150" height="60" as="geometry"/>
                </mxCell>
                <mxCell id="39" value="napi_struct-&amp;gt;poll" style="text;html=1;resizable=0;autosize=1;align=center;verticalAlign=middle;points=[];fillColor=none;strokeColor=none;rounded=0;" parent="1" vertex="1">
                    <mxGeometry x="80" y="460" width="100" height="20" as="geometry"/>
                </mxCell>
                <mxCell id="40" value="dev_queue_xmit" style="text;html=1;resizable=0;autosize=1;align=center;verticalAlign=middle;points=[];fillColor=none;strokeColor=none;rounded=0;" parent="1" vertex="1">
                    <mxGeometry x="660" y="460" width="100" height="20" as="geometry"/>
                </mxCell>
            </root>
        </mxGraphModel>
    </diagram>
</mxfile>